<?xml version="1.0" encoding="UTF-8"?><svg id="Capa_1" xmlns="http://www.w3.org/2000/svg" viewBox="0 0 380.1 539.08"><defs><style>.cls-1{fill:none;}.cls-2,.cls-3,.cls-4,.cls-5{fill:#f3ecdc;stroke:#f3ecdc;stroke-miterlimit:10;}.cls-6{fill:#575756;}.cls-3{stroke-width:6px;}.cls-4{stroke-width:9.39px;}.cls-5{stroke-width:2px;}</style></defs><circle class="cls-5" cx="189" cy="212.44" r="109.19"/><path class="cls-2" d="M217.34,321.51c-2.21,2.94-4.53,5.84-6.72,8.8-1.9,2.57-3.6,5.23-5.48,7.82-2.75,3.81-4.89,7.83-7.03,11.86-1.04,1.98-3.28,2.87-5.75,3.59-2.47.71-4.83.41-7.22-.08-3.72-.76-5.74-2.71-6.43-5.53-.38-1.52-1.6-2.74-2.25-4.18-2.9-6.44-7.25-12.39-11.27-18.43-.91-1.38-1.89-2.81-3.08-4.13-.23-.26-.46-.54-.64-.82l-35.01-.69c.07.06.13.12.18.18,4,4.15,7.78,8.41,11.67,12.61,3.32,3.58,6.12,7.41,9.11,11.15,4.5,5.64,8.24,11.59,11.67,17.64,2.89,5.11,4.96,10.45,6.87,15.83,1.34,3.76,1.89,7.62,2.59,11.46,1.18,6.52,1.31,13.09,1.54,19.65.18,4.9.18,9.79-.05,14.7-.3,6.12-.29,12.25-.75,18.38-.27,3.42-.43,6.85-.69,10.28-.3,3.92-.6,7.85-1,11.77-.51,5.01-1.08,10.02-1.69,15.02-.3,2.4-.62,4.79-.94,7.19-.51,4-.9,7.99-.29,11.99.44,2.79,2.43,4.71,5.95,5.52,3.15.73,6.29,1.38,9.67,1.45,7.07.15,14.13.43,21.16-.4,2.67-.31,5.27-.84,7.47-2.15,3.11-1.84,2.82-4.59,3.08-7.11.35-3.54-.42-7.08-.72-10.61-.44-5.28-.95-10.56-1.52-15.83-.9-8.1-1.48-16.22-1.82-24.34-.25-6.25-.75-12.48-.74-18.73.01-4.59-.18-9.17.04-13.75.35-7.22.7-14.44,1.76-21.64.98-6.68,2.86-13.21,5.7-19.53,1.59-3.54,3.14-7.12,5.28-10.53,2.43-3.88,4.91-7.74,7.57-11.53,1.77-2.52,3.87-4.9,5.84-7.34,1.8-2.21,3.44-4.52,5.48-6.59,2.19-2.22,4.03-4.61,6.33-6.77,1.89-1.79,3.62-3.67,5.4-5.52l-33.28-.66Z"/><path class="cls-3" d="M72.12,220.38c.31-65.14,53.06-116.54,116.84-116.3,64.23.23,116.29,52.75,116,116.65-.3,64.29-52.88,116.37-116.74,116.2-61.13-.16-116.5-51.4-116.1-116.55ZM188.5,323.59c56.85.04,103.1-46.15,103.2-103.07.1-56.79-46.17-103.08-103.1-103.14-56.86-.06-103.12,46.13-103.16,103.02-.04,56.89,46.17,103.16,103.06,103.2Z"/><path class="cls-6" d="M195.96,200.22c0,5.66.06,11.32-.02,16.98-.06,3.77-1.37,6.67-4.98,8.74-10.3,5.91-20.42,12.13-30.58,18.27-1.92,1.16-3.85,2-6.12,1.3-2.95-.91-4.56-3.06-4.89-5.99-.3-2.72,1.04-4.73,3.42-6.12,5.52-3.23,11.01-6.51,16.51-9.77,4-2.37,8.06-4.63,11.95-7.15.82-.53,1.46-1.98,1.47-3.02.09-10.15.17-20.31-.05-30.45-.09-4.02,3.12-7,6.49-7.02,3.92-.03,6.75,2.8,6.78,7.02.05,5.74.01,11.48.01,17.23Z"/><path class="cls-6" d="M154.4,273.01c4.86.02,8.36,4.93,6.54,9.21-1.16,2.72-2.7,5.32-4.42,7.73-1.98,2.79-5.67,3.1-8.93,1.12-2.64-1.61-3.87-5.16-2.53-8.04,1.18-2.54,2.59-4.99,4.04-7.39,1.22-2.02,3.19-2.79,5.3-2.63Z"/><path class="cls-6" d="M242.83,253.09c.02-5.2,4.83-8.23,9.34-6.07,2.32,1.11,4.55,2.41,6.75,3.74,3.36,2.03,4.38,5.52,2.67,8.74-1.8,3.38-5.29,4.56-8.91,2.83-2.39-1.14-4.71-2.46-6.98-3.83-2.09-1.27-3.02-3.24-2.87-5.41Z"/><path class="cls-6" d="M121.39,175.01c4.06-.04,11.79,5.09,12.91,8.42.83,2.45,0,4.49-1.55,6.17-1.66,1.79-4,2.82-6.33,1.81-3.24-1.42-6.4-3.14-9.33-5.13-2.26-1.53-2.68-4.73-1.6-7.46.91-2.28,3.22-3.78,5.89-3.8Z"/><path class="cls-6" d="M249.18,191.83c-2.77,0-5.51-1.82-6.22-4.13-.79-2.58.47-6.53,2.81-7.99,2.31-1.45,4.73-2.79,7.24-3.85,3.6-1.53,6.82-.24,8.39,3.03,1.59,3.32.67,6.67-2.6,8.59-3.03,1.78-6.18,3.34-9.28,5-.12-.22-.23-.43-.35-.65Z"/><path class="cls-6" d="M114.92,256.51c.79-1.46,1.24-3.41,2.46-4.28,2.66-1.91,5.59-3.58,8.63-4.79,3.35-1.33,6.64.36,7.99,3.5,1.39,3.22.33,6.38-2.85,8.25-2.07,1.21-4.2,2.34-6.33,3.44-4.37,2.27-9.45-.91-9.89-6.12Z"/><path class="cls-6" d="M262.02,212.44c1.9.12,3.33.1,4.72.32,3.21.51,5.42,3.22,5.4,6.47-.02,3.27-2.22,6.07-5.47,6.35-3.04.27-6.15.27-9.18-.03-3.15-.31-5.23-3.06-5.29-6.27-.06-3.15,2.03-5.92,5.11-6.46,1.7-.3,3.47-.28,4.72-.37Z"/><path class="cls-6" d="M115.77,212.43c1.5.11,3.17.09,4.79.39,3.03.55,5.22,3.38,5.18,6.43-.04,3.18-2.15,5.99-5.26,6.29-3.12.3-6.3.28-9.42,0-3.04-.27-5.1-2.93-5.21-6.01-.11-3.3,1.74-5.99,4.81-6.64,1.61-.34,3.29-.31,5.12-.46Z"/><path class="cls-6" d="M182.35,146.07c0-1.33-.11-2.66.02-3.98.38-3.65,2.87-5.86,6.46-5.88,3.56-.01,6.2,2.21,6.48,5.83.21,2.79.23,5.65-.07,8.43-.38,3.44-3.24,5.73-6.47,5.63-3.38-.11-5.93-2.37-6.36-5.81-.17-1.39-.03-2.81-.03-4.22,0,0-.02,0-.03,0Z"/><path class="cls-6" d="M155.05,164.65c-2.8-.02-4.96-1.04-6.27-3.67-.89-1.77-1.99-3.44-2.93-5.19-1.79-3.34-.86-7.17,2.13-8.93,3.39-2,7.11-1.05,9.23,2.45,1.29,2.12,2.61,4.25,3.61,6.51,1.95,4.42-1.01,8.83-5.77,8.82Z"/><path class="cls-6" d="M216.28,157.91c.21-.56.56-1.84,1.15-2.99.91-1.76,2-3.44,3.02-5.15,1.93-3.25,5.64-4.38,9.02-2.74,2.92,1.41,4.19,4.63,2.75,8.04-1.12,2.65-2.59,5.19-4.19,7.59-1.6,2.41-4.58,2.94-7.85,1.81-2.35-.82-3.87-3.08-3.9-6.55Z"/><path class="cls-6" d="M222.75,273.97c2.5-.13,4.28,1.01,5.49,3.14,1.1,1.94,2.2,3.89,3.29,5.85,1.84,3.3,1.4,6.15-1.23,8.16-2.76,2.11-6.97,2.2-9.03-.53-2.14-2.83-4.09-6.13-4.95-9.53-1.05-4.14,2.1-7.09,6.43-7.09Z"/><path class="cls-6" d="M195.53,292.52c-.12,3.69.15,7.28-3.93,9.07-3.94,1.73-8.6-.43-9.1-4.67-.37-3.1-.26-6.3.07-9.41.32-3.1,3.2-5.23,6.3-5.21,3.22.02,5.97,2.32,6.39,5.46.22,1.64.19,3.3.27,4.75Z"/><path class="cls-4" d="M203.79,408.75h-29.13c-2.65,0-4.77,1.58-4.73,3.51.06,3.56.01,7.11-.17,10.68-.32,6.12-.3,12.25-.8,18.38-.29,3.42-.45,6.85-.73,10.28-.32,3.92-.63,7.85-1.06,11.77-.54,5.01-1.14,10.02-1.79,15.02-.32,2.4-.66,4.79-.99,7.19-.54,4-.95,7.99-.3,11.99.47,2.79,2.57,4.71,6.29,5.52,3.33.73,6.65,1.38,10.23,1.45,7.47.15,14.95.43,22.38-.4,2.82-.31,5.57-.84,7.9-2.15,3.29-1.84,2.99-4.59,3.26-7.11.37-3.54-.44-7.08-.76-10.61-.47-5.28-1-10.56-1.61-15.83-.95-8.1-1.57-16.22-1.93-24.34-.26-6.25-.8-12.48-.78-18.73l.15-12.64c.03-2.19-2.41-3.98-5.43-3.98Z"/><line class="cls-1" x1="233.6" y1="323.29" x2="208.03" y2="322.63"/><line class="cls-1" x1="165.1" y1="321.53" x2="138.2" y2="320.84"/></svg>